<svg xmlns="http://www.w3.org/2000/svg" viewBox="0 0 925 1039" width="925" height="1039" preserveAspectRatio="xMidYMid meet" style="width: 100%; height: 100%; transform: translate3d(0px, 0px, 0px);">
	<defs>
		<clipPath id="__lottie_element_534">
			<rect width="925" height="1039" x="0" y="0">
			</rect>
		</clipPath>
		<mask id="__lottie_element_555">
			<rect fill="#ffffff" width="925" height="1039" x="-293.7019958496094" y="-544.8280029296875">
			</rect>
			<path fill="#000000" clip-rule="nonzero" d=" M47.047000885009766,-8.82699966430664 C47.047000885009766,-8.82699966430664 5.796999931335449,6.922999858856201 5.796999931335449,6.922999858856201 C5.796999931335449,6.922999858856201 31.23200035095215,2.8949999809265137 44.172000885009766,20.92300033569336 C55.297000885009766,36.42300033569336 44.547000885009766,57.67300033569336 44.547000885009766,57.67300033569336 C44.547000885009766,57.67300033569336 71.5469970703125,22.17300033569336 71.5469970703125,22.17300033569336 C71.5469970703125,22.17300033569336 78.7969970703125,5.422999858856201 72.2969970703125,-4.327000141143799 C64.3489990234375,-16.249000549316406 47.047000885009766,-8.82699966430664 47.047000885009766,-8.82699966430664" fill-opacity="1">
			</path>
		</mask>
	</defs>
	<g clip-path="url(#__lottie_element_534)">
		<g class="png" transform="matrix(0.3041488826274872,-0.0008174953982234001,0.0008174953982234001,0.3041488826274872,268.23846435546875,620.6723022460938)" opacity="1" style="display: block;">
			<image width="1286px" height="219px" preserveAspectRatio="xMidYMid slice" xlink:href="images/lotties/lottie2-and-3/img_11.png">
			</image>
		</g>
		<g class="png" transform="matrix(0.3031593859195709,0.0006137719028629363,-0.0006137719028629363,0.3031593859195709,224.4771728515625,475.189697265625)" opacity="1" style="display: block;">
			<image width="1588px" height="240px" preserveAspectRatio="xMidYMid slice" xlink:href="images/lotties/lottie2-and-3/img_10.png">
			</image>
		</g>
		<g transform="matrix(0.5126274228096008,0.8586111664772034,-0.8586111664772034,0.5126274228096008,674.6129150390625,452.7659912109375)" opacity="1" style="display: block;">
			<image width="46px" height="67px" preserveAspectRatio="xMidYMid slice" xlink:href="images/lotties/lottie2-and-3/img_9.png">
			</image>
		</g>
		<g transform="matrix(-0.908143162727356,0.4186597466468811,-0.4186597466468811,-0.908143162727356,615.6697387695312,702.219970703125)" opacity="1" style="display: block;">
			<image width="104px" height="137px" preserveAspectRatio="xMidYMid slice" xlink:href="images/lotties/lottie2-and-3/img_8.png">
			</image>
		</g>
		<g transform="matrix(1,0,0,1,275.95098876953125,312.2179870605469)" opacity="1" style="display: block;">
			<image width="399px" height="399px" preserveAspectRatio="xMidYMid slice" xlink:href="images/lotties/lottie2-and-3/img_7.png">
			</image>
		</g>
		<g transform="matrix(-0.9019734859466553,-0.0069110519252717495,0.0069110519252717495,-0.9019734859466553,578.0532836914062,623.5881958007812)" opacity="1" style="display: block;">
			<image width="221px" height="106px" preserveAspectRatio="xMidYMid slice" xlink:href="images/lotties/lottie2-and-3/img_6.png">
			</image>
		</g>
		<g mask="url(#__lottie_element_555)" transform="matrix(1,0,0,1,293.7019958496094,544.8280029296875)" opacity="1" style="display: block;">
			<image width="68px" height="60px" preserveAspectRatio="xMidYMid slice" xlink:href="images/lotties/lottie2-and-3/img_5.png">
			</image>
		</g>
		<g class="png" transform="matrix(0.30352920293807983,-0.0006992821581661701,0.0006992821581661701,0.30352920293807983,268.86553955078125,651.9472045898438)" opacity="1" style="display: block;">
			<image width="1285px" height="334px" preserveAspectRatio="xMidYMid slice" xlink:href="images/lotties/lottie2-and-3/img_4.png">
			</image>
		</g>
		<g class="png" transform="matrix(0.30320999026298523,0,0,0.30320999026298523,224.4031982421875,513.3856201171875)" opacity="1" style="display: block;">
			<image width="1587px" height="601px" preserveAspectRatio="xMidYMid slice" xlink:href="images/lotties/lottie2-and-3/img_3.png">
			</image>
		</g>
		<g class="png" transform="matrix(0.30395999550819397,0,0,0.30395999550819397,223.50294494628906,273.6644592285156)" opacity="1" style="display: block;">
			<image width="1589px" height="946px" preserveAspectRatio="xMidYMid slice" xlink:href="images/lotties/lottie2-and-3/img_2.png">
			</image>
		</g>
		<g transform="matrix(1,0,0,1,377.53802490234375,455.23199462890625)" opacity="1" style="display: block;">
			<image width="183px" height="175px" preserveAspectRatio="xMidYMid slice" xlink:href="images/lotties/lottie2-and-3/img_1.png">
			</image>
		</g>
		<g class="png" transform="matrix(0.3053300082683563,0,0,0.3053300082683563,354.0012512207031,429.0135192871094)" opacity="1" style="display: block;">
			<image width="750px" height="727px" preserveAspectRatio="xMidYMid slice" xlink:href="images/lotties/lottie2-and-3/img_0.png">
			</image>
		</g>
	</g>
</svg>
